<svg xmlns="http://www.w3.org/2000/svg" viewBox="0 0 24 24" aria-hidden="true" fill="currentColor">
  <path d="M20.32 4.37A19.79 19.79 0 0 0 15.36 2.8a13.94 13.94 0 0 0-.63 1.29 18.27 18.27 0 0 0-5.47 0 12.64 12.64 0 0 0-.64-1.29 19.74 19.74 0 0 0-4.96 1.58C.53 9.04-.32 13.58.1 18.06a19.9 19.9 0 0 0 6.07 3.07 14.6 14.6 0 0 0 1.3-2.11 12.95 12.95 0 0 1-2.05-.98c.17-.13.34-.26.5-.39a14.18 14.18 0 0 0 12.16 0l.5.39c-.65.39-1.33.72-2.05.98.38.75.82 1.45 1.3 2.11a19.84 19.84 0 0 0 6.07-3.07c.5-5.2-.84-9.7-3.58-13.69ZM8.02 15.3c-1.18 0-2.15-1.08-2.15-2.41 0-1.33.95-2.42 2.15-2.42s2.17 1.09 2.15 2.42c0 1.33-.95 2.41-2.15 2.41Zm7.96 0c-1.18 0-2.15-1.08-2.15-2.41 0-1.33.95-2.42 2.15-2.42s2.17 1.09 2.15 2.42c0 1.33-.95 2.41-2.15 2.41Z"/>
</svg>
