<svg xmlns="http://www.w3.org/2000/svg" viewBox="0 0 24 24" aria-hidden="true" fill="currentColor">
  <path d="M12 .5C5.65.5.5 5.65.5 12c0 5.08 3.29 9.39 7.86 10.91.58.11.79-.25.79-.56v-2.18c-3.2.7-3.87-1.36-3.87-1.36-.52-1.33-1.28-1.69-1.28-1.69-1.05-.72.08-.7.08-.7 1.16.08 1.77 1.19 1.77 1.19 1.03 1.76 2.69 1.25 3.35.96.1-.75.4-1.25.73-1.54-2.55-.29-5.23-1.28-5.23-5.68 0-1.25.45-2.28 1.19-3.08-.12-.29-.52-1.46.11-3.04 0 0 .97-.31 3.16 1.18A10.98 10.98 0 0 1 12 6.03c.98 0 1.95.13 2.87.38 2.19-1.49 3.15-1.18 3.15-1.18.63 1.58.23 2.75.11 3.04.74.8 1.18 1.83 1.18 3.08 0 4.42-2.69 5.39-5.25 5.67.41.36.78 1.06.78 2.14v3.18c0 .31.21.68.79.56A11.51 11.51 0 0 0 23.5 12C23.5 5.65 18.35.5 12 .5Z"/>
</svg>
